<svg preserveAspectRatio="none" overflow="visible" style="display: block;" width="24" height="24" viewBox="0 0 24 24" fill="none" xmlns="http://www.w3.org/2000/svg">
<g id="logos:miro-icon" clip-path="url(#clip0_0_45)">
<path id="Vector" d="M0 6C0 2.68631 2.68631 0 6 0H18C21.3137 0 24 2.68631 24 6V18C24 21.3137 21.3137 24 18 24H6C2.68631 24 0 21.3137 0 18V6Z" fill="#FFDD33"/>
<path id="Vector_2" d="M15.9558 4.575H13.7771L15.5927 7.76494L11.5985 4.575H9.41981L11.417 8.47387L7.24116 4.575H5.0625L7.24116 9.53784L5.0625 19.4625H7.24116L11.417 8.82881L9.41981 19.4625H11.5985L15.5927 8.11987L13.7771 19.4625H15.9558L19.95 7.05591L15.9558 4.575Z" fill="black"/>
</g>
<defs>
<clipPath id="clip0_0_45">
<rect width="24" height="24" fill="white"/>
</clipPath>
</defs>
</svg>
