<svg preserveAspectRatio="none" overflow="visible" style="display: block;" width="26.4321" height="27.8005" viewBox="0 0 26.4321 27.8005" fill="none" xmlns="http://www.w3.org/2000/svg">
<g id="Group">
<path id="Vector" d="M16.3699 13.9366C15.6958 13.6464 15.1059 13.2484 14.6001 12.7427C14.0945 12.2372 13.6965 11.6473 13.4062 10.973C13.2953 10.7152 13.2052 10.449 13.1369 10.1768C13.1261 10.1335 13.1011 10.095 13.0659 10.0676C13.0307 10.0401 12.9874 10.0252 12.9427 10.0251C12.851 10.0251 12.7712 10.0878 12.7487 10.1769C12.6803 10.4491 12.5902 10.7153 12.4793 10.973C12.1889 11.6473 11.7909 12.2372 11.2854 12.7427C10.7797 13.2484 10.1898 13.6464 9.51557 13.9366C9.25778 14.0476 8.9915 14.1378 8.7193 14.2062C8.67605 14.217 8.63764 14.242 8.61017 14.2771C8.5827 14.3122 8.56775 14.3555 8.56768 14.4001C8.56768 14.4917 8.6303 14.5717 8.71944 14.5939C8.99159 14.6624 9.25782 14.7526 9.51557 14.8636C10.1897 15.1538 10.7796 15.5517 11.2854 16.0574C11.7913 16.5629 12.1892 17.1528 12.4793 17.8271C12.5902 18.0849 12.6803 18.3512 12.7487 18.6234C12.7712 18.7123 12.8511 18.7751 12.9427 18.7751C13.0344 18.7751 13.1143 18.7125 13.1368 18.6234C13.2052 18.3512 13.2953 18.085 13.4062 17.8273C13.6965 17.1532 14.0945 16.5633 14.6001 16.0575C15.1058 15.5519 15.6957 15.1539 16.3699 14.8637C16.6277 14.7527 16.894 14.6625 17.1662 14.5941C17.2094 14.5833 17.2479 14.5583 17.2753 14.5232C17.3028 14.4881 17.3177 14.4448 17.3178 14.4002C17.3178 14.3083 17.2552 14.2286 17.1661 14.2061C16.8939 14.1377 16.6277 14.0476 16.3699 13.9367" fill="white"/>
<g id="Group_2" filter="url(#filter0_f_0_16)">
<path id="Vector_2" d="M7.77761 16.8656C8.78858 17.2246 9.95056 16.5515 10.373 15.362C10.7954 14.1726 10.3183 12.9173 9.3073 12.5583C8.29633 12.1993 7.13434 12.8724 6.71193 14.0618C6.28952 15.2513 6.76664 16.5065 7.77761 16.8656Z" fill="#FFE432"/>
</g>
<g id="Group_3" filter="url(#filter1_f_0_16)">
<path id="Vector_3" d="M12.2665 12.9439C13.6554 12.9439 14.7813 11.7932 14.7813 10.3737C14.7813 8.95419 13.6554 7.80347 12.2665 7.80347C10.8776 7.80347 9.75166 8.95419 9.75166 10.3737C9.75166 11.7932 10.8776 12.9439 12.2665 12.9439Z" fill="#FC413D"/>
</g>
<g id="Group_4" filter="url(#filter2_f_0_16)">
<path id="Vector_4" d="M11.2892 21.164C12.7391 21.0931 13.84 19.513 13.7482 17.6348C13.6563 15.7566 12.4066 14.2914 10.9567 14.3623C9.50685 14.4332 8.40596 16.0132 8.49778 17.8915C8.58961 19.7697 9.83939 21.2348 11.2892 21.164Z" fill="#00B95C"/>
</g>
<g id="Group_5" filter="url(#filter3_f_0_16)">
<path id="Vector_5" d="M12.7413 20.0271C13.9568 19.2876 14.2822 17.6033 13.468 16.2652C12.6539 14.927 11.0085 14.4418 9.79298 15.1813C8.57746 15.9208 8.25209 17.6051 9.06624 18.9433C9.88039 20.2814 11.5258 20.7667 12.7413 20.0271Z" fill="#00B95C"/>
</g>
<g id="Group_6" filter="url(#filter4_f_0_16)">
<path id="Vector_6" d="M17.6544 15.822C19.0206 15.822 20.1281 14.7555 20.1281 13.44C20.1281 12.1244 19.0206 11.0579 17.6544 11.0579C16.2882 11.0579 15.1807 12.1244 15.1807 13.44C15.1807 14.7555 16.2882 15.822 17.6544 15.822Z" fill="#3186FF"/>
</g>
<g id="Group_7" filter="url(#filter5_f_0_16)">
<path id="Vector_7" d="M6.80635 15.5458C8.06427 16.5024 9.90195 16.2022 10.9109 14.8754C11.9199 13.5486 11.718 11.6976 10.4601 10.741C9.2022 9.78442 7.36452 10.0845 6.35556 11.4113C5.3466 12.7382 5.54842 14.5892 6.80635 15.5458Z" fill="#FBBC04"/>
</g>
<g id="Group_8" filter="url(#filter6_f_0_16)">
<path id="Vector_8" d="M13.2517 16.9595C14.7532 17.9918 16.7434 17.7042 17.6971 16.3172C18.6507 14.9301 18.2066 12.9689 16.7052 11.9366C15.2037 10.9042 13.2134 11.1918 12.2598 12.5788C11.3062 13.9659 11.7503 15.9272 13.2517 16.9595Z" fill="#3186FF"/>
</g>
<g id="Group_9" filter="url(#filter7_f_0_16)">
<path id="Vector_9" d="M15.9816 9.71008C16.3636 10.2295 15.8726 11.2392 14.8851 11.9656C13.8977 12.6918 12.7875 12.8596 12.4055 12.3402C12.0235 11.8208 12.5143 10.8112 13.502 10.0847C14.4895 9.35843 15.5997 9.19068 15.9816 9.71008Z" fill="#749BFF"/>
</g>
<g id="Group_10" filter="url(#filter8_f_0_16)">
<path id="Vector_10" d="M12.8455 12.1958C14.3726 10.7793 14.8968 8.86143 14.0162 7.9121C13.1357 6.96277 11.1839 7.34146 9.65677 8.75793C8.12964 10.1744 7.60547 12.0923 8.48601 13.0416C9.36654 13.9909 11.3183 13.6122 12.8455 12.1958Z" fill="#FC413D"/>
</g>
<g id="Group_11" filter="url(#filter9_f_0_16)">
<path id="Vector_11" d="M9.7151 17.2841C10.6228 17.9337 11.6648 18.0325 12.0426 17.5046C12.4203 16.9768 11.9908 16.0223 11.0831 15.3727C10.1755 14.7231 9.13343 14.6243 8.75566 15.1521C8.37789 15.68 8.80745 16.6345 9.7151 17.2841Z" fill="#FFEE48"/>
</g>
</g>
<defs>
<filter id="filter0_f_0_16" x="4.94368" y="10.8473" width="7.19755" height="7.72918" filterUnits="userSpaceOnUse" color-interpolation-filters="sRGB">
<feFlood flood-opacity="0" result="BackgroundImageFix"/>
<feBlend mode="normal" in="SourceGraphic" in2="BackgroundImageFix" result="shape"/>
<feGaussianBlur stdDeviation="0.807188" result="effect1_foregroundBlur_0_16"/>
</filter>
<filter id="filter1_f_0_16" x="1.94819" y="-1.19209e-07" width="20.6366" height="20.7474" filterUnits="userSpaceOnUse" color-interpolation-filters="sRGB">
<feFlood flood-opacity="0" result="BackgroundImageFix"/>
<feBlend mode="normal" in="SourceGraphic" in2="BackgroundImageFix" result="shape"/>
<feGaussianBlur stdDeviation="3.90173" result="effect1_foregroundBlur_0_16"/>
</filter>
<filter id="filter2_f_0_16" x="1.8584" y="7.7258" width="18.5291" height="20.0747" filterUnits="userSpaceOnUse" color-interpolation-filters="sRGB">
<feFlood flood-opacity="0" result="BackgroundImageFix"/>
<feBlend mode="normal" in="SourceGraphic" in2="BackgroundImageFix" result="shape"/>
<feGaussianBlur stdDeviation="3.31702" result="effect1_foregroundBlur_0_16"/>
</filter>
<filter id="filter3_f_0_16" x="1.98386" y="8.20135" width="18.5665" height="18.8057" filterUnits="userSpaceOnUse" color-interpolation-filters="sRGB">
<feFlood flood-opacity="0" result="BackgroundImageFix"/>
<feBlend mode="normal" in="SourceGraphic" in2="BackgroundImageFix" result="shape"/>
<feGaussianBlur stdDeviation="3.31702" result="effect1_foregroundBlur_0_16"/>
</filter>
<filter id="filter4_f_0_16" x="8.8768" y="4.75393" width="17.5553" height="17.372" filterUnits="userSpaceOnUse" color-interpolation-filters="sRGB">
<feFlood flood-opacity="0" result="BackgroundImageFix"/>
<feBlend mode="normal" in="SourceGraphic" in2="BackgroundImageFix" result="shape"/>
<feGaussianBlur stdDeviation="3.15197" result="effect1_foregroundBlur_0_16"/>
</filter>
<filter id="filter5_f_0_16" x="-2.38419e-07" y="4.46819" width="17.2665" height="17.3504" filterUnits="userSpaceOnUse" color-interpolation-filters="sRGB">
<feFlood flood-opacity="0" result="BackgroundImageFix"/>
<feBlend mode="normal" in="SourceGraphic" in2="BackgroundImageFix" result="shape"/>
<feGaussianBlur stdDeviation="2.85666" result="effect1_foregroundBlur_0_16"/>
</filter>
<filter id="filter6_f_0_16" x="6.65504" y="6.21479" width="16.6468" height="16.4664" filterUnits="userSpaceOnUse" color-interpolation-filters="sRGB">
<feFlood flood-opacity="0" result="BackgroundImageFix"/>
<feBlend mode="normal" in="SourceGraphic" in2="BackgroundImageFix" result="shape"/>
<feGaussianBlur stdDeviation="2.55117" result="effect1_foregroundBlur_0_16"/>
</filter>
<filter id="filter7_f_0_16" x="7.71034" y="4.84276" width="12.9664" height="12.3647" filterUnits="userSpaceOnUse" color-interpolation-filters="sRGB">
<feFlood flood-opacity="0" result="BackgroundImageFix"/>
<feBlend mode="normal" in="SourceGraphic" in2="BackgroundImageFix" result="shape"/>
<feGaussianBlur stdDeviation="2.28277" result="effect1_foregroundBlur_0_16"/>
</filter>
<filter id="filter8_f_0_16" x="4.20263" y="3.53291" width="14.097" height="13.8879" filterUnits="userSpaceOnUse" color-interpolation-filters="sRGB">
<feFlood flood-opacity="0" result="BackgroundImageFix"/>
<feBlend mode="normal" in="SourceGraphic" in2="BackgroundImageFix" result="shape"/>
<feGaussianBlur stdDeviation="1.92806" result="effect1_foregroundBlur_0_16"/>
</filter>
<filter id="filter9_f_0_16" x="3.84563" y="10.0399" width="13.107" height="12.577" filterUnits="userSpaceOnUse" color-interpolation-filters="sRGB">
<feFlood flood-opacity="0" result="BackgroundImageFix"/>
<feBlend mode="normal" in="SourceGraphic" in2="BackgroundImageFix" result="shape"/>
<feGaussianBlur stdDeviation="2.38645" result="effect1_foregroundBlur_0_16"/>
</filter>
</defs>
</svg>
