<svg preserveAspectRatio="none" overflow="visible" style="display: block;" width="24" height="24" viewBox="0 0 24 24" fill="none" xmlns="http://www.w3.org/2000/svg">
<g id="devicon:photoshop" clip-path="url(#clip0_0_73)">
<path id="Vector" d="M4.25006 0.3H19.7499C22.1001 0.3 24 2.19994 24 4.55006V19.4499C24 21.8001 22.1001 23.7 19.7499 23.7H4.25006C1.89994 23.7 0 21.8001 0 19.4499V4.55006C0 2.19994 1.89994 0.3 4.25006 0.3Z" fill="#001E36"/>
<path id="Vector_2" d="M8.60006 6.24994C8.30006 6.24994 8.00006 6.24994 7.69012 6.26006C7.38 6.27 7.08994 6.27 6.81994 6.28012C6.54994 6.29006 6.3 6.29006 6.06 6.3C5.82994 6.30994 5.67 6.30994 5.49994 6.30994C5.43 6.30994 5.4 6.34988 5.4 6.42V16.71C5.4 16.8 5.43994 16.8401 5.52 16.8401H7.46006C7.53 16.83 7.58006 16.77 7.56994 16.7001V13.4901C7.75987 13.4901 7.89994 13.4901 8.00006 13.5C8.1 13.5099 8.25994 13.5099 8.49994 13.5099C9.32006 13.5099 10.0701 13.4199 10.7499 13.17C11.4 12.93 11.9601 12.51 12.36 11.9499C12.76 11.3899 12.96 10.6799 12.96 9.81994C12.96 9.36994 12.8801 8.94 12.7301 8.52C12.5712 8.0921 12.3222 7.70334 12 7.38C11.6197 7.01056 11.162 6.73041 10.6599 6.55987C10.0999 6.34988 9.42 6.24994 8.60006 6.24994ZM8.82319 8.21963C9.17944 8.22638 9.52631 8.28862 9.84994 8.41987C10.14 8.52994 10.38 8.73 10.5501 8.98987C10.7096 9.25883 10.7893 9.56757 10.7801 9.88012C10.7801 10.32 10.68 10.6601 10.47 10.9101C10.2499 11.16 9.96994 11.3501 9.65006 11.4401C9.27994 11.5601 8.88994 11.6199 8.49994 11.6199H7.96987C7.84987 11.6199 7.72012 11.61 7.58006 11.6001V8.24006C7.65 8.22994 7.79006 8.22 7.99012 8.23013C8.18006 8.22 8.40994 8.22 8.67 8.22C8.72125 8.21875 8.77231 8.21863 8.82319 8.21963ZM17.2101 8.73019C16.5 8.73019 15.9099 8.84006 15.4401 9.08006C15.0101 9.28012 14.64 9.6 14.3901 9.99994C14.1701 10.3701 14.0499 10.7799 14.0499 11.2101C14.0414 11.5638 14.1204 11.9142 14.28 12.2301C14.467 12.5664 14.7267 12.8567 15.0401 13.08C15.48 13.3809 15.9574 13.6229 16.4601 13.8C16.95 13.9899 17.28 14.1399 17.4401 14.2699C17.6001 14.4 17.6801 14.5299 17.6801 14.67C17.6801 14.85 17.5701 15.0201 17.4101 15.09C17.2301 15.18 16.9601 15.2301 16.5801 15.2301C16.1801 15.2301 15.78 15.18 15.3999 15.0801C14.9635 14.9826 14.5451 14.8173 14.16 14.5901C14.13 14.5701 14.1 14.5601 14.07 14.5802C14.04 14.6001 14.0301 14.64 14.0301 14.67V16.41C14.0201 16.4901 14.07 16.56 14.1401 16.5999C14.4644 16.7514 14.8074 16.8591 15.1601 16.92C15.6101 17.01 16.0599 17.0499 16.5199 17.0499C17.2399 17.0499 17.8401 16.9401 18.33 16.7301C18.78 16.5501 19.17 16.2401 19.4499 15.84C19.7121 15.4466 19.8482 14.9827 19.8399 14.5101C19.8498 14.153 19.7708 13.7991 19.6101 13.4801C19.4199 13.14 19.1499 12.8601 18.8199 12.6501C18.3372 12.3469 17.8203 12.1018 17.28 11.9199C17.0387 11.8201 16.8018 11.71 16.5699 11.5899C16.44 11.52 16.32 11.43 16.23 11.3199C16.17 11.2399 16.1301 11.1501 16.1301 11.0601C16.1301 10.9701 16.1601 10.8701 16.2099 10.7901C16.2801 10.6901 16.3899 10.62 16.5199 10.59C16.71 10.5401 16.92 10.5099 17.1199 10.5199C17.4999 10.5199 17.8699 10.5699 18.24 10.65C18.5801 10.7199 18.9 10.83 19.2 10.9901C19.2399 11.01 19.29 11.01 19.38 10.9901C19.3956 10.9785 19.4083 10.9634 19.417 10.946C19.4257 10.9287 19.4302 10.9094 19.4301 10.89V9.26006C19.4301 9.21994 19.4199 9.18 19.41 9.14006C19.3899 9.10013 19.35 9.06 19.3101 9.05006C19.0342 8.93733 18.7453 8.86003 18.45 8.82C18.0394 8.76021 17.625 8.73032 17.2101 8.73019Z" fill="#31A8FF"/>
</g>
<defs>
<clipPath id="clip0_0_73">
<rect width="24" height="24" fill="white"/>
</clipPath>
</defs>
</svg>
